<svg width="50" height="50" xmlns="http://www.w3.org/2000/svg">

 <g>
  <title>background</title>
  <rect fill="none" id="canvas_background" height="402" width="582" y="-1" x="-1"/>
 </g>
 <g>
  <title>Layer 1</title>
  <path id="svg_1" fill="#37a449" d="m48.5144,20.9626l-8.2417,8.2417l-4.7036,-4.7121l3.5549,-3.5296c0.2829,-0.3305 0.2638,-0.8228 -0.0439,-1.1305c-0.3074,-0.3073 -0.7996,-0.3264 -1.1301,-0.0435l-3.5629,3.5215l-2.348,-2.356l8.2336,-8.2418c0.3228,-0.3247 0.3228,-0.8491 0,-1.1739c-0.3248,-0.3228 -0.8492,-0.3228 -1.1739,0l-8.8328,8.8331c-0.1577,0.1561 -0.2463,0.3691 -0.2463,0.5911c0,0.2219 0.0886,0.4345 0.2463,0.591l1.1821,1.1736l-1.1821,1.1825c-1.3975,-1.3988 -3.5861,-1.6215 -5.2365,-0.5329l-0.6492,-0.6496c-0.78,-0.778 -1.8369,-1.215 -2.9389,-1.2154c-0.5207,0 -1.0374,0.0959 -1.5236,0.2833l-1.4235,-1.4236l0.591,-0.5829c0.1577,-0.1565 0.2464,-0.3691 0.2464,-0.591c0,-0.222 -0.0887,-0.435 -0.2464,-0.5911l-8.2665,-8.2417c-0.3264,-0.3244 -0.85403,-0.3223 -1.17801,0.0041c-0.32438,0.3264 -0.32235,0.8536 0.00407,1.178l7.65064,7.6507l-0.591,0.5825l-4.1625,4.121l-2.93861,-2.947c-0.1565,-0.1578 -0.3691,-0.2464 -0.59104,-0.2464c-0.22195,0 -0.43495,0.0886 -0.59105,0.2464c-0.32316,0.3247 -0.32316,0.8491 0,1.1739l2.9467,2.9471l-1.1821,1.1736l-1.10729,1.2239l-7.65067,-7.684c-0.15609,-0.1577 -0.3691,-0.2463 -0.591042,-0.2463c-0.221947,0 -0.434544,0.0886 -0.591045,0.2463c-0.322758,0.3248 -0.322758,0.8492 0,1.174l8.241707,8.2417c0.15732,0.1557 0.36991,0.2427 0.59105,0.2415c0.22154,0.0012 0.43413,-0.0858 0.59145,-0.2415l1.14874,-1.174l1.1736,1.174c-1.6248,1.6256 -1.6248,4.2601 0,5.8857l1.5654,1.5402c0.1561,0.1577 0.3691,0.2463 0.591,0.2463c0.222,0 0.4346,-0.0886 0.5911,-0.2463c0.3227,-0.3248 0.3227,-0.8492 0,-1.174l-1.5402,-1.5398c-0.4704,-0.4687 -0.7346,-1.1053 -0.7346,-1.7691c0,-0.6642 0.2642,-1.3008 0.7346,-1.769l0.5829,-0.583l5.8938,-5.8942c0.9894,-0.9386 2.5406,-0.9386 3.53,0l5.2946,5.2947c0.2829,0.3304 0.2638,0.8227 -0.0435,1.1304c-0.3077,0.3073 -0.8,0.3264 -1.1301,0.0435l-3.8381,-3.8377c-0.3284,-0.3264 -0.8597,-0.3248 -1.1862,0.0041c-0.3264,0.3288 -0.3247,0.8597 0.0041,1.1861l3.8377,3.8381c0.7138,0.7191 1.7911,0.9362 2.7272,0.5492c0.9366,-0.387 1.5463,-1.3012 1.5439,-2.3142c-0.0008,-0.6621 -0.2642,-1.2971 -0.7329,-1.765l-3.4296,-3.43c0.9561,-0.4333 2.0796,-0.2423 2.8385,0.4829l7.0682,7.0682c0.4654,0.4691 0.726,1.104 0.7244,1.765c0.0016,0.661 -0.259,1.2955 -0.7244,1.7646l-2.3561,2.3561l-2.4141,2.406l-1.7069,1.715l-4.7117,4.7117c-0.3248,0.3228 -0.8492,0.3228 -1.174,0c-0.3227,-0.3244 -0.3227,-0.8488 0,-1.1735l5.3365,-5.3117c0.2374,-0.2033 0.3411,-0.5228 0.2679,-0.8268c-0.0732,-0.3041 -0.3106,-0.5415 -0.6146,-0.6147c-0.3045,-0.0731 -0.6236,0.0301 -0.8273,0.2679l-5.3031,5.2946c-0.3301,0.2829 -0.8223,0.2638 -1.1301,-0.0435c-0.3073,-0.3077 -0.3264,-0.8 -0.0435,-1.1304l5.2947,-5.2946c0.1577,-0.1561 0.2463,-0.3691 0.2463,-0.5911c0,-0.2219 -0.0886,-0.4345 -0.2463,-0.591c-0.3248,-0.3228 -0.8492,-0.3228 -1.174,0l-5.3032,5.3031c-0.3243,0.3228 -0.8487,0.3228 -1.1735,0c-0.1577,-0.1565 -0.2463,-0.3691 -0.2463,-0.591c0,-0.222 0.0886,-0.435 0.2463,-0.5911l5.2946,-5.295c0.1577,-0.1561 0.2463,-0.3691 0.2463,-0.591c0,-0.222 -0.0886,-0.4346 -0.2463,-0.5911c-0.3248,-0.3228 -0.8492,-0.3228 -1.174,0l-5.3027,5.3032c-0.3264,0.3239 -0.854,0.3223 -1.178,-0.0041c-0.3244,-0.3264 -0.3224,-0.8541 0.004,-1.178l6.4019,-6.3938c0.3265,-0.3264 0.3265,-0.8557 0,-1.1821c-0.3264,-0.3264 -0.8556,-0.3264 -1.182,0l-6.4353,6.4186c-0.9739,0.9752 -0.9739,2.5548 0,3.53c0.4301,0.439 1.0093,0.7008 1.6232,0.7325c0.0743,1.2674 1.0881,2.2776 2.356,2.3475c0.0703,1.2711 1.0854,2.2857 2.3561,2.3561c0.0239,0.626 0.2825,1.2207 0.7243,1.665c0.7504,0.7487 1.8919,0.9426 2.8471,0.4829l0.6825,0.691c0.7012,0.7016 1.7516,0.922 2.676,0.561c0.924,-0.361 1.5467,-1.2345 1.5866,-2.226c0.6272,-0.0191 1.2235,-0.2784 1.665,-0.7244c0.4325,-0.4341 0.6902,-1.0117 0.7243,-1.6235c1.2712,-0.0699 2.2858,-1.0849 2.3561,-2.3561c0.9914,-0.0394 1.865,-0.6625 2.226,-1.5865c0.3613,-0.9244 0.141,-1.9744 -0.561,-2.6756l-0.591,-0.5829l1.182,-1.1821c0.7781,-0.78 1.2151,-1.8369 1.2155,-2.9389c-0.0195,-0.824 -0.2834,-1.6236 -0.7577,-2.2976l1.2573,-1.2568l0.591,0.591c0.3248,0.3228 0.8492,0.3228 1.174,0l8.8075,-8.8332c0.3228,-0.3243 0.3228,-0.8491 0,-1.1735c-0.1561,-0.1577 -0.3691,-0.2463 -0.591,-0.2463c-0.222,0 -0.4346,0.0886 -0.5911,0.2463zm-36.4968,5.8856l5.3031,-5.2946l1.1736,1.1736l-5.2946,5.3031l-1.1821,-1.1821zm16.4834,21.1956c-0.3248,0.3227 -0.8492,0.3227 -1.1736,0l-0.591,-0.5911l1.1821,-1.1739l0.5825,0.5829c0.1577,0.1561 0.2463,0.3691 0.2463,0.591c0,0.222 -0.0886,0.435 -0.2463,0.5911zm2.356,-2.3561c-0.3247,0.3228 -0.8491,0.3228 -1.1739,0l-0.5492,-0.591l0.5911,-0.5911l0.5825,-0.5829l0.5914,0.5829c0.1573,0.1565 0.2459,0.3691 0.2459,0.5911c0,0.2219 -0.0886,0.4349 -0.2459,0.591l-0.0419,0zm2.3561,-2.356c-0.3248,0.3227 -0.8492,0.3227 -1.174,0l-0.591,-0.5911l1.1739,-1.1735l0.5911,0.591c0.3228,0.3248 0.3228,0.8492 0,1.1736zm2.356,-2.3557c-0.1565,0.1573 -0.3691,0.2459 -0.591,0.2459c-0.2219,0 -0.435,-0.0886 -0.591,-0.2459l-0.583,-0.5914l1.1573,-1.1736l0.5911,0.5911c0.3272,0.3199 0.3349,0.8447 0.0166,1.1739zm1.1736,-10.5977l-5.2946,-5.2951l1.1739,-1.1735l5.3032,5.2946l-1.1825,1.174z"/>
  <path id="svg_2" fill="#37a449" d="m15.8139,13.3201l18.3151,0c0.4598,0 0.8325,-0.3728 0.8325,-0.8325l0,-11.655096c0,-0.459747 -0.3727,-0.832504 -0.8325,-0.832504l-18.3151,0c-0.4597,0 -0.8325,0.372757 -0.8325,0.832504l0,11.655096c0,0.4597 0.3728,0.8325 0.8325,0.8325zm0.8326,-3.33005c0.9194,0 1.665,0.74555 1.665,1.66505l-1.665,0l0,-1.66505zm16.65,1.66505l-1.665,0c0,-0.9195 0.7455,-1.66505 1.665,-1.66505l0,1.66505zm0,-8.32508c-0.9195,0 -1.665,-0.74552 -1.665,-1.66501l1.665,0l0,1.66501zm0,1.665l0,3.33002c-1.8394,0 -3.33,1.49103 -3.33,3.33006l-9.99,0c0,-1.83903 -1.4911,-3.33006 -3.33,-3.33006l0,-3.33002c1.8389,0 3.33,-1.49102 3.33,-3.33001l9.99,0c0,1.83899 1.4906,3.33001 3.33,3.33001zm-16.65,-3.33001l1.665,0c0,0.91949 -0.7456,1.66501 -1.665,1.66501l0,-1.66501z"/>
  <path id="svg_3" fill="#37a449" d="m24.9713,9.99005c1.8389,0 3.33,-1.49103 3.33,-3.33002c0,-1.83899 -1.4911,-3.33001 -3.33,-3.33001c-1.8394,0 -3.3301,1.49102 -3.3301,3.33001c0,1.83899 1.4907,3.33002 3.3301,3.33002zm0,-4.99502c0.9194,0 1.665,0.74551 1.665,1.665c0,0.9195 -0.7456,1.66501 -1.665,1.66501c-0.9195,0 -1.6651,-0.74551 -1.6651,-1.66501c0,-0.91949 0.7456,-1.665 1.6651,-1.665z"/>
  <path id="svg_4" fill="#37a449" d="m31.6313,6.66002c0,0.45975 -0.3727,0.8325 -0.8325,0.8325c-0.4597,0 -0.8325,-0.37275 -0.8325,-0.8325c0,-0.45975 0.3728,-0.83251 0.8325,-0.83251c0.4598,0 0.8325,0.37276 0.8325,0.83251z"/>
  <path id="svg_5" fill="#37a449" d="m19.9763,6.66002c0,0.45975 -0.3728,0.8325 -0.8325,0.8325c-0.4598,0 -0.8325,-0.37275 -0.8325,-0.8325c0,-0.45975 0.3727,-0.83251 0.8325,-0.83251c0.4597,0 0.8325,0.37276 0.8325,0.83251z"/>
  <path id="svg_6" fill="#37a449" d="m49.805,5.36978l-3.33,-4.995025c-0.1548,-0.230483 -0.4138,-0.368285 -0.691,-0.368285c-0.2772,0 -0.5366,0.137802 -0.6911,0.368285l-3.33,4.995025c-0.091,0.13536 -0.1402,0.29471 -0.1414,0.45771l0,3.33002c0,0.45975 0.3727,0.8325 0.8325,0.8325c0.4597,0 0.8325,-0.37275 0.8325,-0.8325l0,-3.08043l2.4975,-3.74627l2.4975,3.74627l0,8.90792c0,0.4598 0.3728,0.8325 0.8325,0.8325c0.4598,0 0.8325,-0.3727 0.8325,-0.8325l0,-9.15751c-0.0012,-0.163 -0.0504,-0.32235 -0.1415,-0.45771z"/>
  <path id="svg_7" fill="#37a449" d="m46.6166,11.655l0,-4.99498c0,-0.45975 -0.3728,-0.83251 -0.8326,-0.83251c-0.4597,0 -0.8325,0.37276 -0.8325,0.83251l0,4.99498c0,0.4598 0.3728,0.8325 0.8325,0.8325c0.4598,0 0.8326,-0.3727 0.8326,-0.8325z"/>
  <path id="svg_8" fill="#37a449" d="m0.828736,7.49256l0.832504,0l0,9.99004c0,0.4598 0.37276,0.8325 0.8325,0.8325c0.45975,0 0.83251,-0.3727 0.83251,-0.8325l0,-10.82254c0,-0.45975 -0.37276,-0.83251 -0.83251,-0.83251l-0.04999,0l2.54751,-3.56293l2.54751,3.56293l-0.05,0c-0.45975,0 -0.83251,0.37276 -0.83251,0.83251l0,1.66501c0,0.45974 0.37276,0.8325 0.83251,0.8325c0.45975,0 0.8325,-0.37276 0.8325,-0.8325l0,-0.83251l0.83251,0c0.31097,-0.00162 0.59511,-0.17601 0.73697,-0.45284c0.14185,-0.27641 0.11745,-0.60933 -0.0626,-0.86258l-4.16252,-5.827528c-0.1569,-0.216256 -0.40731,-0.344302 -0.67437,-0.344302c-0.26707,0 -0.51788,0.128046 -0.67438,0.344302l-4.162521,5.827528c-0.180484,0.25325 -0.204467,0.58617 -0.0626,0.86258c0.141867,0.27683 0.426008,0.45122 0.736977,0.45284z"/>
  <path id="svg_9" fill="#37a449" d="m4.99121,11.6551l0,2.4975c0,0.4597 0.37276,0.8325 0.83251,0.8325c0.45974,0 0.8325,-0.3728 0.8325,-0.8325l0,-2.4975c0,-0.4598 -0.37276,-0.8325 -0.8325,-0.8325c-0.45975,0 -0.83251,0.3727 -0.83251,0.8325z"/>
 </g>
</svg>