<svg width="50" height="50" xmlns="http://www.w3.org/2000/svg">

 <g>
  <title>background</title>
  <rect fill="none" id="canvas_background" height="402" width="582" y="-1" x="-1"/>
 </g>
 <g>
  <title>Layer 1</title>
  <path id="svg_1" fill="#37a449" d="m42.1107,36.7029l-2.9496,2.9496l-1.7666,-1.7747c-0.3266,-0.3267 -0.8564,-0.3267 -1.183,0c-0.3267,0.3267 -0.3267,0.8564 0,1.1831l2.358,2.3581c0.1562,0.1578 0.3694,0.2465 0.5916,0.2465c0.2221,0 0.4349,-0.0887 0.5915,-0.2465l3.5745,-3.5412c0.2376,-0.2034 0.3413,-0.5232 0.2681,-0.8275c-0.0732,-0.3047 -0.3108,-0.5423 -0.6151,-0.6156c-0.3043,-0.0732 -0.6241,0.0306 -0.828,0.2682l-0.0414,0z"/>
  <path id="svg_2" fill="#37a449" d="m43.3271,30.9123l0,-2.5831c0,-0.4601 -0.3731,-0.8332 -0.8332,-0.8332l-2.4996,0l0,-0.8332c0,-1.3804 1.1192,-2.4996 2.4996,-2.4996c0.4601,0 0.8332,-0.3731 0.8332,-0.8332c0,-0.4602 -0.3731,-0.8332 -0.8332,-0.8332c-2.3007,0 -4.1661,1.8653 -4.1661,4.166l0,0.8332l-2.4996,0c-0.4601,0 -0.8332,0.3731 -0.8332,0.8332l0,2.5831c-4.2731,1.9585 -6.6047,6.6291 -5.6026,11.2211c1.0024,4.5924 5.068,7.8667 9.7686,7.8667c4.7003,0 8.7663,-3.2743 9.7687,-7.8667c1.0021,-4.592 -1.3295,-9.2626 -5.6026,-11.2211zm-3.3328,17.414l0,-0.8332c0,-0.4601 -0.3731,-0.8332 -0.8333,-0.8332c-0.4601,0 -0.8332,0.3731 -0.8332,0.8332l0,0.8332c-3.9732,-0.3808 -7.1181,-3.5257 -7.4989,-7.4989l0.8332,0c0.4602,0 0.8332,-0.3731 0.8332,-0.8332c0,-0.4601 -0.373,-0.8332 -0.8332,-0.8332l-0.8332,0c0.3141,-3.1119 2.3442,-5.7857 5.2576,-6.924c0.3206,-0.1237 0.5322,-0.4313 0.5334,-0.7751l0,-2.2994l4.9993,0l0,2.2994c0.0008,0.3438 0.2124,0.6514 0.533,0.7751c2.9459,1.1135 5.0122,3.7921 5.341,6.924l-0.8332,0c-0.4602,0 -0.8333,0.3731 -0.8333,0.8332c0,0.4601 0.3731,0.8332 0.8333,0.8332l0.8332,0c-0.3808,3.9732 -3.5257,7.1181 -7.4989,7.4989z"/>
  <path id="svg_3" fill="#37a449" d="m26.8377,43.327c-0.1749,0 -22.67164,0 -22.67164,0c-1.38041,0 -2.49964,-1.1192 -2.49964,-2.4996l0,-26.6628l43.32708,0l0,15.3811c0,0.4601 0.373,0.8332 0.8332,0.8332c0.4601,0 0.8332,-0.3731 0.8332,-0.8332l0,-21.21358c0,-2.30069 -1.8654,-4.16606 -4.1661,-4.16606l-1.6664,0l0,-0.83321c0,-0.46014 -0.3731,-0.83321 -0.8332,-0.83321c-0.4601,0 -0.8332,0.37307 -0.8332,0.83321l0,3.33285c0,0.92028 -0.7462,1.66642 -1.6664,1.66642c-0.9203,0 -1.6665,-0.74614 -1.6665,-1.66642l0,-3.33285c0,-0.92028 0.7462,-1.66643 1.6665,-1.66643c0.4601,0 0.8332,-0.37307 0.8332,-0.833208c0,-0.460138 -0.3731,-0.833212 -0.8332,-0.833212c-1.8406,0 -3.3329,1.4923 -3.3329,3.33285l0,0.83321l-7.4989,0l0,-0.83321c0,-0.46014 -0.3731,-0.83321 -0.8332,-0.83321c-0.4602,0 -0.8332,0.37307 -0.8332,0.83321l0,3.33285c0,0.92028 -0.7462,1.66642 -1.6665,1.66642c-0.9202,0 -1.6664,-0.74614 -1.6664,-1.66642l0,-3.33285c0,-0.92028 0.7462,-1.66643 1.6664,-1.66643c0.4602,0 0.8333,-0.37307 0.8333,-0.833208c0,-0.460138 -0.3731,-0.833212 -0.8333,-0.833212c-1.8405,0 -3.3328,1.4923 -3.3328,3.33285l0,0.83321l-7.4989,0l0,-0.83321c0,-0.46014 -0.3731,-0.83321 -0.8332,-0.83321c-0.4602,0 -0.8332,0.37307 -0.8332,0.83321l0,3.33285c0,0.92028 -0.7462,1.66642 -1.66646,1.66642c-0.92028,0 -1.66643,-0.74614 -1.66643,-1.66642l0,-3.33285c0,-0.92028 0.74615,-1.66643 1.66643,-1.66643c0.46013,0 0.83321,-0.37307 0.83321,-0.833208c0,-0.460138 -0.37308,-0.833212 -0.83321,-0.833212c-1.84056,0 -3.33285,1.4923 -3.33285,3.33285l0,0.83321l-1.66643,0c-2.30069,0 -4.16606,1.86537 -4.16606,4.16606l0,32.49528c0,2.3007 1.86537,4.1661 4.16606,4.1661l19.16384,0c4.3744,0 4.3744,0 4.3744,-0.8332c0.0012,-0.2214 -0.0858,-0.4346 -0.2417,-0.5916c-0.1651,-0.1644 -0.3917,-0.2522 -0.6249,-0.2417zm-22.67164,-37.49451l1.66643,0l0,0.83321c0,1.84055 1.49229,3.33285 3.33285,3.33285c1.84056,0 3.33286,-1.4923 3.33286,-3.33285l0,-0.83321l7.4989,0l0,0.83321c0,1.84055 1.4923,3.33285 3.3328,3.33285c1.8406,0 3.3329,-1.4923 3.3329,-3.33285l0,-0.83321l7.4989,0l0,0.83321c0,1.84055 1.4923,3.33285 3.3329,3.33285c1.8405,0 3.3328,-1.4923 3.3328,-3.33285l0,-0.83321l1.6664,0c1.3804,0 2.4997,1.11922 2.4997,2.49963l0,4.16608l-43.32708,0l0,-4.16608c0,-1.38041 1.11923,-2.49963 2.49964,-2.49963z"/>
  <path id="svg_4" fill="#37a449" d="m14.9979,17.4975c0,-0.4602 -0.3731,-0.8333 -0.8332,-0.8333l-6.66572,0c-0.46013,0 -0.83321,0.3731 -0.83321,0.8333l0,6.6657c0,0.4601 0.37308,0.8332 0.83321,0.8332l6.66572,0c0.4601,0 0.8332,-0.3731 0.8332,-0.8332l0,-6.6657zm-1.6664,5.8324l-4.9993,0l0,-4.9992l4.9993,0l0,4.9992z"/>
  <path id="svg_5" fill="#37a449" d="m14.1647,29.9956c0.4601,0 0.8332,-0.373 0.8332,-0.8332c0,-0.4601 -0.3731,-0.8332 -0.8332,-0.8332l-6.66572,0c-0.46013,0 -0.83321,0.3731 -0.83321,0.8332l0,6.6657c0,0.4602 0.37308,0.8332 0.83321,0.8332l6.66572,0c0.4601,0 0.8332,-0.373 0.8332,-0.8332l0,-3.3328c0,-0.4602 -0.3731,-0.8332 -0.8332,-0.8332c-0.4602,0 -0.8332,0.373 -0.8332,0.8332l0,2.4996l-4.9993,0l0,-4.9993l5.8325,0z"/>
  <path id="svg_6" fill="#37a449" d="m19.164,28.3292c-0.4601,0 -0.8332,0.3731 -0.8332,0.8332l0,6.6657c0,0.4602 0.3731,0.8332 0.8332,0.8332l6.6657,0c0.4601,0 0.8332,-0.373 0.8332,-0.8332l0,-6.6657c0,-0.4601 -0.3731,-0.8332 -0.8332,-0.8332l-6.6657,0zm5.8325,6.6657l-4.9993,0l0,-4.9993l4.9993,0l0,4.9993z"/>
  <path id="svg_7" fill="#37a449" d="m37.4946,23.3299c0.4602,0 0.8332,-0.373 0.8332,-0.8332l0,-4.9992c0,-0.4602 -0.373,-0.8333 -0.8332,-0.8333l-6.6657,0c-0.4601,0 -0.8332,0.3731 -0.8332,0.8333l0,6.6657c0,0.4601 0.3731,0.8332 0.8332,0.8332c0.4602,0 0.8332,-0.3731 0.8332,-0.8332l0,-5.8325l4.9993,0l0,4.166c0,0.4602 0.3731,0.8332 0.8332,0.8332z"/>
  <path id="svg_8" fill="#37a449" d="m26.4213,16.9059c-0.1567,-0.1578 -0.3694,-0.2465 -0.5916,-0.2465c-0.2221,0 -0.4353,0.0887 -0.5915,0.2465l-2.7413,2.7494l-2.7413,-2.7494c-0.3267,-0.3267 -0.8564,-0.3267 -1.1831,0c-0.3267,0.3267 -0.3267,0.8564 0,1.1831l2.7494,2.7413l-2.7494,2.7413c-0.1579,0.1562 -0.2466,0.3694 -0.2466,0.5916c0,0.2221 0.0887,0.4353 0.2466,0.5915c0.1562,0.1579 0.3694,0.2465 0.5915,0.2465c0.2222,0 0.4349,-0.0886 0.5916,-0.2465l2.7413,-2.7494l2.7413,2.7494c0.1562,0.1579 0.3694,0.2465 0.5915,0.2465c0.2222,0 0.4349,-0.0886 0.5916,-0.2465c0.1578,-0.1562 0.2465,-0.3694 0.2465,-0.5915c0,-0.2222 -0.0887,-0.4354 -0.2465,-0.5916l-2.7495,-2.7413l2.7495,-2.7413c0.1578,-0.1562 0.2465,-0.3694 0.2465,-0.5915c0,-0.2222 -0.0887,-0.4354 -0.2465,-0.5916z"/>
 </g>
</svg>