<svg width="50" height="50" xmlns="http://www.w3.org/2000/svg">

 <g>
  <title>background</title>
  <rect fill="none" id="canvas_background" height="402" width="582" y="-1" x="-1"/>
 </g>
 <g>
  <title>Layer 1</title>
  <path id="svg_1" fill="#37a449" d="m49.9035,11.8519c-0.1721,-0.6399 -0.5919,-1.1855 -1.1664,-1.5162c-0.5748,-0.3324 -1.2583,-0.42231 -1.8995,-0.2502c-0.6403,0.1725 -1.1859,0.5919 -1.5167,1.1664l-0.4166,0.7249c-0.3958,-0.2274 -0.9015,-0.0935 -1.133,0.3003l-2.1163,3.6074l-0.725,-0.4166c-0.192,-0.1111 -0.4207,-0.1412 -0.6347,-0.0834c-0.2144,0.0581 -0.3966,0.1989 -0.5069,0.3917c-0.2258,0.3983 -0.0882,0.9044 0.3084,1.1331l0.725,0.4166l-7.0821,12.2729l-1.7498,4.6745l-0.8332,1.5577c-0.4878,0.8487 -0.4357,1.9036 0.1334,2.6998l-1.8747,2.2994l-0.5248,-1.3161c-0.2367,-0.5867 -0.7847,-0.9886 -1.4149,-1.0379c-0.6306,-0.0496 -1.2348,0.262 -1.5598,0.8043l-0.2999,0.5082l-0.2831,-3.3328c-0.0651,-0.7884 -0.6758,-1.4223 -1.4609,-1.5175c-0.7856,-0.0948 -1.5293,0.3759 -1.7803,1.1261l-2.0497,6.1489c-0.1432,0.4349 0.0912,0.9036 0.5249,1.05c0.0813,0.0379 0.1688,0.0606 0.2583,0.0663c0.358,0.0013 0.677,-0.227 0.7917,-0.5663l2.0411,-6.1488l0.2917,3.3824c0.0602,0.7217 0.5789,1.3218 1.2843,1.4853c0.7055,0.1636 1.4353,-0.1473 1.8068,-0.7685l0.3083,-0.5085l0.5167,1.3083c0.2193,0.5513 0.7152,0.9447 1.3023,1.0322c0.5871,0.0874 1.1761,-0.144 1.5472,-0.6074l1.9414,-2.4577c0.2148,0.0561 0.4361,0.0842 0.6582,0.0834c0.893,0.0069 1.7221,-0.4634 2.1745,-1.2335l0.8332,-1.3914l3.1745,-3.8576l7.157,-12.423l0.725,0.4166c0.1932,0.1107 0.334,0.2934 0.3914,0.5086c0.0577,0.2136 0.0276,0.4414 -0.083,0.633l-3.3328,5.7742c-0.1257,0.1895 -0.1684,0.4223 -0.118,0.6444c0.0505,0.2217 0.1892,0.4133 0.3845,0.5301c0.192,0.1115 0.4207,0.1416 0.6346,0.0838c0.2144,-0.0582 0.3967,-0.1989 0.507,-0.3918l3.3327,-5.7742c0.3324,-0.5748 0.4223,-1.2583 0.2498,-1.8994c-0.1725,-0.6404 -0.5919,-1.186 -1.1664,-1.5167l-0.7249,-0.4166l2.0829,-3.6078c0.2275,-0.3958 0.0936,-0.9011 -0.2998,-1.133l0.4166,-0.725c0.3413,-0.5838 0.4316,-1.2811 0.2498,-1.9329zm-3.1412,0.2332c0.1103,-0.1929 0.2934,-0.3341 0.5086,-0.3914c0.214,-0.0529 0.4402,-0.0232 0.633,0.0834c0.1933,0.1102 0.334,0.2933 0.3918,0.5081c0.0529,0.214 0.0232,0.4402 -0.0834,0.633l-0.4166,0.725l-1.4499,-0.8332l0.4165,-0.7249zm-11.3563,23.263l-0.4166,-0.2417l-1.2331,-0.7168l1.1831,-3.166l2.6245,1.5163l-2.1579,2.6082zm-2.4995,2.4076c-0.3519,-0.2453 -0.4602,-0.7172 -0.2498,-1.0915l0.4166,-0.7246l1.4495,0.8332l-0.4166,0.7165c-0.1167,0.2026 -0.3128,0.3466 -0.5411,0.3974c-0.2282,0.0505 -0.467,0.0033 -0.6586,-0.131zm5.6073,-6.3819l-2.8828,-1.6664l6.6656,-11.5483l2.8828,1.6663l-6.6656,11.5484zm7.4988,-12.9898l-2.8829,-1.6663l1.6664,-2.8829l2.8828,1.6664l-1.6663,2.8828z"/>
  <path id="svg_2" fill="#37a449" d="m13.1476,37.3436l-2.9491,2.9414l-1.76647,-1.7664c-0.32506,-0.3231 -0.84987,-0.3231 -1.17493,0c-0.15785,0.1566 -0.24654,0.3694 -0.24654,0.5915c0,0.2221 0.08869,0.4353 0.24654,0.5915l1.76646,1.7665c0.31245,0.31 0.73474,0.4837 1.17494,0.4833c0.4426,0.0024 0.8686,-0.1713 1.1831,-0.4833l2.9409,-2.9495c0.2832,-0.3308 0.2641,-0.8235 -0.0435,-1.131c-0.308,-0.308 -0.8006,-0.3271 -1.1314,-0.044z"/>
  <path id="svg_3" fill="#37a449" d="m3.33282,39.585c0,3.9116 3.17085,7.0821 7.08218,7.0821c3.9112,0 7.0821,-3.1705 7.0821,-7.0821c0,-0.4602 -0.3731,-0.8332 -0.8332,-0.8332c-0.4601,0 -0.8332,0.373 -0.8332,0.8332c0,2.991 -2.4247,5.4157 -5.4157,5.4157c-2.99108,0 -5.41579,-2.4247 -5.41579,-5.4157c0,-2.9911 2.42471,-5.4158 5.41579,-5.4158c1.1724,-0.0032 2.3136,0.3771 3.2493,1.0834c0.3682,0.2762 0.8906,0.2014 1.1664,-0.1668c0.2762,-0.3682 0.2018,-0.8901 -0.1664,-1.1664c-2.146,-1.6094 -5.01745,-1.8682 -7.41653,-0.6688c-2.3995,1.1997 -3.91495,3.6521 -3.91495,6.3344z"/>
  <path id="svg_4" fill="#37a449" d="m29.9948,6.67383c0.4602,0 0.8332,-0.37266 0.8332,-0.83319c0,-0.46013 -0.373,-0.83319 -0.8332,-0.83319l-21.66295,0c-0.46013,0 -0.83319,0.37306 -0.83319,0.83319l0,3.33276c0,0.46054 0.37306,0.8332 0.83319,0.8332l21.66295,0c0.4602,0 0.8332,-0.37266 0.8332,-0.8332c0,-0.46012 -0.373,-0.83319 -0.8332,-0.83319l-20.82976,0l0,-1.66638l20.82976,0z"/>
  <path id="svg_5" fill="#37a449" d="m10.8315,11.673c-0.4601,0 -0.83321,0.3731 -0.83321,0.8332c0,0.4606 0.37311,0.8332 0.83321,0.8332l16.6638,0c0.4601,0 0.8332,-0.3726 0.8332,-0.8332c0,-0.4601 -0.3731,-0.8332 -0.8332,-0.8332l-16.6638,0z"/>
  <path id="svg_6" fill="#37a449" d="m32.4945,17.5053l-18.3302,0c-0.4601,0 -0.8332,0.3731 -0.8332,0.8332c0,0.4605 0.3731,0.8332 0.8332,0.8332l18.3302,0c0.4601,0 0.8332,-0.3727 0.8332,-0.8332c0,-0.4601 -0.3731,-0.8332 -0.8332,-0.8332z"/>
  <path id="svg_7" fill="#37a449" d="m24.1625,23.3377c0,-0.4601 -0.373,-0.8332 -0.8331,-0.8332l-16.66387,0c-0.46013,0 -0.83319,0.3731 -0.83319,0.8332c0,0.4605 0.37306,0.8332 0.83319,0.8332l16.66387,0c0.4601,0 0.8331,-0.3727 0.8331,-0.8332z"/>
  <path id="svg_8" fill="#37a449" d="m32.4944,22.5045l-5.8323,0c-0.4601,0 -0.8332,0.3731 -0.8332,0.8332c0,0.4605 0.3731,0.8332 0.8332,0.8332l5.8323,0c0.4602,0 0.8332,-0.3727 0.8332,-0.8332c0,-0.4601 -0.373,-0.8332 -0.8332,-0.8332z"/>
  <path id="svg_9" fill="#37a449" d="m14.9974,28.3368c0.4602,0 0.8332,-0.3726 0.8332,-0.8331c0,-0.4602 -0.373,-0.8332 -0.8332,-0.8332l-8.33187,0c-0.46013,0 -0.83319,0.373 -0.83319,0.8332c0,0.4605 0.37306,0.8331 0.83319,0.8331l8.33187,0z"/>
  <path id="svg_10" fill="#37a449" d="m18.3301,28.3368l5.8324,0c0.4601,0 0.8332,-0.3726 0.8332,-0.8331c0,-0.4602 -0.3731,-0.8332 -0.8332,-0.8332l-5.8324,0c-0.4601,0 -0.8332,0.373 -0.8332,0.8332c0,0.4605 0.3731,0.8331 0.8332,0.8331z"/>
  <path id="svg_11" fill="#37a449" d="m37.4936,38.3352c-0.4601,0 -0.8332,0.373 -0.8332,0.8332l0,8.3319c0,0.4605 -0.373,0.8332 -0.8332,0.8332l-33.32763,0c-0.46012,0 -0.83319,-0.3727 -0.83319,-0.8332l0,-44.99236c0,-0.46013 0.37307,-0.8332 0.83319,-0.8332l33.32763,0c0.4602,0 0.8332,0.37307 0.8332,0.8332l0,15.64756c0,0.4601 0.3731,0.8332 0.8332,0.8332c0.4601,0 0.8332,-0.3731 0.8332,-0.8332l0,-15.64756c0,-1.38038 -1.1192,-2.499578 -2.4996,-2.499578l-33.32763,0c-1.38038,0 -2.49957,1.119198 -2.49957,2.499578l0,44.99236c0,1.3808 1.11919,2.4995 2.49957,2.4995l33.32763,0c1.3804,0 2.4996,-1.1187 2.4996,-2.4995l0,-8.3319c0,-0.4602 -0.3731,-0.8332 -0.8332,-0.8332z"/>
 </g>
</svg>