<svg width="50" height="50" xmlns="http://www.w3.org/2000/svg">

 <g>
  <title>background</title>
  <rect fill="none" id="canvas_background" height="402" width="582" y="-1" x="-1"/>
 </g>
 <g>
  <title>Layer 1</title>
  <path id="svg_1" fill="#37a449" d="m48.3277,35.6352l0,-2.3l0.8332,0c0.2299,0.0017 0.45,-0.0919 0.6083,-0.2583c0.1415,-0.1583 0.2217,-0.3625 0.2249,-0.5749l-1.4915,-28.33005c-0.142,-2.29303 -2.0436,-4.080336 -4.3411,-4.080336c-2.2975,0 -4.1991,1.787306 -4.3411,4.080336l-1.4916,28.33005c-0.0069,0.227 0.0737,0.4475 0.225,0.6168c0.1652,0.1509 0.3845,0.229 0.6083,0.2164l0.8332,0l0,2.3l-1.5749,3.158c-0.1188,0.2355 -0.1188,0.5138 0,0.7498l4.9994,9.9988c0.0407,0.092 0.1005,0.1742 0.1749,0.2417c0.0973,0.0899 0.2145,0.1558 0.3418,0.1916l0.4581,0c0.1278,-0.0358 0.2449,-0.1017 0.3418,-0.1916c0.0748,-0.0675 0.1342,-0.1497 0.1749,-0.2417l4.9994,-9.9988c0.1188,-0.236 0.1188,-0.5143 0,-0.7498l-1.583,-3.158zm-8.2909,-3.9664l0.3503,-6.6659l7.5488,0l0.3918,6.6659l-8.2909,0zm1.45,-27.45494c0,-1.47729 1.1974,-2.67507 2.6747,-2.67507c1.4773,0 2.6747,1.19778 2.6747,2.67507l1.0081,19.16444l-7.3656,0l0.0915,-1.6665l4.641,0c0.4605,0 0.8332,-0.3731 0.8332,-0.8332c0,-0.4606 -0.3727,-0.8332 -0.8332,-0.8332l-4.5576,0l0.8332,-15.83154zm5.1744,29.12134l0,1.6665l-4.9994,0l0,-1.6665l4.9994,0zm-1.6665,12.2988l0,-5.6329l0.8333,0c0.4601,0 0.8332,-0.3731 0.8332,-0.8332c0,-0.4602 -0.3731,-0.8332 -0.8332,-0.8332l-3.333,0c-0.4601,0 -0.8332,0.373 -0.8332,0.8332c0,0.4601 0.3731,0.8332 0.8332,0.8332l0.8333,0l0,5.6329l-3.2329,-6.4661l1.2499,-2.4997l5.6324,0l1.2499,2.4997l-3.2329,6.4661z"/>
  <path id="svg_2" fill="#37a449" d="m28.3301,10.8379c0.4601,0 0.8332,-0.3731 0.8332,-0.8333c0,-0.46013 -0.3731,-0.83321 -0.8332,-0.83321l-21.66416,0c-0.46015,0 -0.83324,0.37308 -0.83324,0.83321l0,3.333c0,0.4601 0.37309,0.8332 0.83324,0.8332l21.66416,0c0.4601,0 0.8332,-0.3731 0.8332,-0.8332c0,-0.4602 -0.3731,-0.8333 -0.8332,-0.8333l-20.83093,0l0,-1.6664l20.83093,0z"/>
  <path id="svg_3" fill="#37a449" d="m29.1633,18.337c0,-0.4602 -0.3731,-0.8333 -0.8332,-0.8333l-18.33121,0c-0.46016,0 -0.83324,0.3731 -0.83324,0.8333c0,0.4601 0.37308,0.8332 0.83324,0.8332l18.33121,0c0.4601,0 0.8332,-0.3731 0.8332,-0.8332z"/>
  <path id="svg_4" fill="#37a449" d="m4.99945,22.5031c0,0.4602 0.37309,0.8332 0.83324,0.8332l13.33181,0c0.4601,0 0.8332,-0.373 0.8332,-0.8332c0,-0.4602 -0.3731,-0.8332 -0.8332,-0.8332l-13.33181,0c-0.46015,0 -0.83324,0.373 -0.83324,0.8332z"/>
  <path id="svg_5" fill="#37a449" d="m24.1639,21.6699c-0.4601,0 -0.8332,0.373 -0.8332,0.8332c0,0.4602 0.3731,0.8332 0.8332,0.8332l3.333,0c0.4601,0 0.8332,-0.373 0.8332,-0.8332c0,-0.4602 -0.3731,-0.8332 -0.8332,-0.8332l-3.333,0z"/>
  <path id="svg_6" fill="#37a449" d="m16.6648,26.6693c0,-0.4602 -0.3731,-0.8332 -0.8333,-0.8332l-9.99881,0c-0.46015,0 -0.83324,0.373 -0.83324,0.8332c0,0.4601 0.37309,0.8332 0.83324,0.8332l9.99881,0c0.4602,0 0.8333,-0.3731 0.8333,-0.8332z"/>
  <path id="svg_7" fill="#37a449" d="m15.8315,30.8356c0,-0.4602 -0.3731,-0.8333 -0.8332,-0.8333l-9.16561,0c-0.46015,0 -0.83324,0.3731 -0.83324,0.8333c0,0.4601 0.37309,0.8332 0.83324,0.8332l9.16561,0c0.4601,0 0.8332,-0.3731 0.8332,-0.8332z"/>
  <path id="svg_8" fill="#37a449" d="m5.83269,34.1685c-0.46015,0 -0.83324,0.373 -0.83324,0.8332c0,0.4601 0.37309,0.8332 0.83324,0.8332l5.83261,0c0.4602,0 0.8333,-0.3731 0.8333,-0.8332c0,-0.4602 -0.3731,-0.8332 -0.8333,-0.8332l-5.83261,0z"/>
  <path id="svg_9" fill="#37a449" d="m32.4962,0.005737l-29.99649,0c-1.38046,0 -2.49971,1.119253 -2.49971,2.499713l0,38.32885c0,1.3805 1.11925,2.4997 2.49971,2.4997l14.16499,0c0.4602,0 0.8333,-0.373 0.8333,-0.8332c0,-0.4602 -0.3731,-0.8332 -0.8333,-0.8332l-14.16499,0c-0.46015,0 -0.83324,-0.3731 -0.83324,-0.8333l0,-33.32943l31.66303,0l0,33.32943c0,0.4602 -0.3731,0.8333 -0.8333,0.8333l-2.4997,0c-0.4601,0 -0.8332,0.373 -0.8332,0.8332c0,0.4602 0.3731,0.8332 0.8332,0.8332l2.4997,0c1.3805,0 2.4997,-1.1192 2.4997,-2.4997l0,-38.32885c0,-1.38046 -1.1192,-2.499713 -2.4997,-2.499713zm-30.82973,5.832653l0,-3.33294c0,-0.46015 0.37309,-0.83324 0.83324,-0.83324l29.99649,0c0.4602,0 0.8333,0.37309 0.8333,0.83324l0,3.33294l-31.66303,0z"/>
  <path id="svg_10" fill="#37a449" d="m23.3306,30.8354c-1.3805,0 -2.4997,1.1193 -2.4997,2.4998c0,1.3804 1.1192,2.4997 2.4997,2.4997c1.3804,0 2.4997,-1.1193 2.4997,-2.4997c0,-1.3805 -1.1193,-2.4998 -2.4997,-2.4998zm0,3.333c-0.4602,0 -0.8333,-0.3731 -0.8333,-0.8332c0,-0.4602 0.3731,-0.8333 0.8333,-0.8333c0.4601,0 0.8332,0.3731 0.8332,0.8333c0,0.4601 -0.3731,0.8332 -0.8332,0.8332z"/>
  <path id="svg_11" fill="#37a449" d="m29.9965,33.3352c-0.0012,-0.926 -0.5139,-1.776 -1.3333,-2.208c0.2726,-0.8853 0.0334,-1.8484 -0.6212,-2.5034c-0.6551,-0.6546 -1.6181,-0.8939 -2.5034,-0.6213c-0.4337,-0.8169 -1.2828,-1.3279 -2.208,-1.3279c-0.9252,0 -1.7743,0.511 -2.208,1.3279c-0.8853,-0.2726 -1.8483,-0.0333 -2.5034,0.6213c-0.6546,0.655 -0.8938,1.6181 -0.6212,2.5034c-0.8174,0.4337 -1.328,1.2828 -1.328,2.208c0,0.9252 0.5106,1.7747 1.328,2.208c-0.2726,0.8832 -0.0354,1.8446 0.6163,2.4997c0.1628,0.1623 0.3479,0.2998 0.5501,0.4085l0,10.7153c0.0016,0.3364 0.2055,0.6387 0.5167,0.7665c0.31,0.1306 0.6685,0.0614 0.9081,-0.175l2.7414,-2.7495l2.7414,2.7495c0.157,0.1563 0.3702,0.2429 0.5915,0.2417c0.1095,0.0029 0.2177,-0.0199 0.3166,-0.0667c0.3112,-0.1278 0.515,-0.4301 0.5167,-0.7665l0,-10.7072c0.2022,-0.1086 0.3873,-0.2462 0.55,-0.4081c0.6518,-0.6554 0.889,-1.6164 0.6164,-2.4997c0.8219,-0.4337 1.3353,-1.2873 1.3333,-2.2165zm-6.0743,11.907c-0.1563,-0.1579 -0.3695,-0.2466 -0.5916,-0.2466c-0.2222,0 -0.4353,0.0887 -0.5916,0.2466l-1.9081,1.9162l0,-8.4153l0.2917,-0.0753c0.4337,0.8174 1.2828,1.328 2.208,1.328c0.9252,0 1.7743,-0.5106 2.208,-1.328l0.2917,0.0753l0,8.4153l-1.9081,-1.9162zm3.5746,-11.0738l-0.1416,0c-0.3393,-0.0016 -0.6461,0.2026 -0.7751,0.5167c-0.1281,0.3121 -0.0557,0.6705 0.1835,0.9081l0.1001,0.1001c0.323,0.3251 0.323,0.8499 0,1.175c-0.0919,0.0964 -0.2067,0.168 -0.3336,0.2083l-0.1249,0c-0.2624,0.0407 -0.5285,-0.046 -0.7165,-0.2335l-0.1001,-0.1001c-0.2384,-0.2401 -0.5985,-0.3125 -0.9109,-0.1827c-0.3129,0.1298 -0.5159,0.4361 -0.5139,0.7746l0,0.1665c0,0.4601 -0.3731,0.8332 -0.8332,0.8332c-0.4602,0 -0.8332,-0.3731 -0.8332,-0.8332l0,-0.1416c0.0016,-0.3393 -0.2027,-0.6461 -0.5168,-0.7751c-0.1004,-0.0399 -0.2083,-0.0594 -0.3165,-0.0582c-0.2213,-0.0012 -0.4345,0.0859 -0.5916,0.2417l-0.1,0.1001c-0.188,0.1875 -0.4541,0.2742 -0.7165,0.2331l-0.1249,0c-0.127,-0.0399 -0.2417,-0.1115 -0.3336,-0.2083c-0.3231,-0.3251 -0.3231,-0.8499 0,-1.175l0.1086,-0.0997c0.2392,-0.238 0.3116,-0.5964 0.1831,-0.9085c-0.129,-0.3137 -0.4354,-0.5183 -0.7747,-0.5163l-0.1501,0c-0.4601,0 -0.8332,-0.3731 -0.8332,-0.8332c0,-0.4606 0.3731,-0.8332 0.8332,-0.8332l0.1416,0c0.3393,0.0016 0.6461,-0.2031 0.775,-0.5167c0.1282,-0.3121 0.0558,-0.6705 -0.1834,-0.9086l-0.1001,-0.0996c-0.3267,-0.3247 -0.3284,-0.8524 -0.0041,-1.1791c0.3247,-0.3267 0.8524,-0.3287 1.1791,-0.0041l0.1,0.1083c0.2377,0.2392 0.5965,0.3116 0.9081,0.183c0.3141,-0.1289 0.5184,-0.4353 0.5168,-0.7746l0,-0.1668c0,-0.4602 0.373,-0.8333 0.8332,-0.8333c0.4601,0 0.8332,0.3731 0.8332,0.8333l0,0.1416c-0.0016,0.3397 0.2026,0.6461 0.5167,0.775c0.3117,0.1282 0.6705,0.0562 0.9081,-0.1835l0.1001,-0.0996c0.3243,-0.3267 0.8524,-0.3288 1.1791,-0.0045c0.3267,0.3246 0.3283,0.8523 0.004,1.179l-0.1082,0.1001c-0.2392,0.2376 -0.3116,0.5965 -0.1835,0.9081c0.129,0.3141 0.4358,0.5184 0.7751,0.5167l0.1416,0c0.4601,0 0.8332,0.3731 0.8332,0.8333c0,0.4601 -0.3731,0.8332 -0.8332,0.8332z"/>
 </g>
</svg>