<svg width="50" height="50" xmlns="http://www.w3.org/2000/svg">

 <g>
  <title>background</title>
  <rect fill="none" id="canvas_background" height="402" width="582" y="-1" x="-1"/>
 </g>
 <g>
  <title>Layer 1</title>
  <path id="svg_1" fill="#37a449" d="m49.1667,24.1667l-19.0585,0c-0.4602,0 -0.8333,0.3731 -0.8333,0.8333c0,0.4602 0.3731,0.8334 0.8333,0.8334l18.2251,0l0,8.3333l-4.1666,0l0,-5.8333c0,-0.4603 -0.3732,-0.8334 -0.8334,-0.8334c-0.4602,0 -0.8333,0.3731 -0.8333,0.8334l0,5.8333l-22.5,0l0,-8.3333l5,0c0.4602,0 0.8333,-0.3732 0.8333,-0.8334c0,-0.4602 -0.3731,-0.8333 -0.8333,-0.8333l-5.8333,0c-0.4602,0 -0.8334,0.3731 -0.8334,0.8333l0,10c0,0.4602 0.3732,0.8334 0.8334,0.8334l7.5,0l0,1.6666l-7.5,0c-0.4602,0 -0.8334,0.3731 -0.8334,0.8334l0,5.8333l-2.5,0l0,-0.8333c0,-0.4603 -0.3731,-0.8334 -0.8333,-0.8334l-2.5,0l0,-4.1666c0,-0.4603 -0.3731,-0.8334 -0.8333,-0.8334c-0.4602,0 -0.8334,0.3731 -0.8334,0.8334l0,5c0,0.4602 0.3732,0.8333 0.8334,0.8333l2.5,0l0,1.6667l-8.33337,0l0,-1.6667l2.5,0c0.46021,0 0.83334,-0.3731 0.83334,-0.8333l0,-5c0,-0.4603 -0.37313,-0.8334 -0.83334,-0.8334c-0.4602,0 -0.83333,0.3731 -0.83333,0.8334l0,4.1666l-2.5,0c-0.46021,0 -0.83333,0.3731 -0.83333,0.8334l0,0.8333l-3.333337,0c-0.460205,0 -0.833333,0.3731 -0.833333,0.8333c0,0.4602 0.373128,0.8334 0.833333,0.8334l3.333337,0l0,0.8333c0,0.4602 0.37312,0.8333 0.83333,0.8333l10,0c0.4602,0 0.8333,-0.3731 0.8333,-0.8333l0,-0.8333l2.5,0l0,2.5c0,0.4602 0.3732,0.8333 0.8334,0.8333l30,0c0.4602,0 0.8333,-0.3731 0.8333,-0.8333l0,-10c0,-0.4603 -0.3731,-0.8334 -0.8333,-0.8334l-7.5,0l0,-1.6666l7.5,0c0.4602,0 0.8333,-0.3732 0.8333,-0.8334l0,-10c0,-0.4602 -0.3731,-0.8333 -0.8333,-0.8333zm-0.8334,23.3333l-28.3333,0l0,-8.3333l22.5,0l0,5.8333c0,0.4602 0.3731,0.8334 0.8333,0.8334c0.4602,0 0.8334,-0.3732 0.8334,-0.8334l0,-5.8333l4.1666,0l0,8.3333zm-8.3333,-10l-11.6667,0l0,-1.6666l11.6667,0l0,1.6666z"/>
  <path id="svg_2" fill="#37a449" d="m24.9999,27.5c-1.3806,0 -2.5,1.1194 -2.5,2.5c0,1.381 1.1194,2.5 2.5,2.5c1.3806,0 2.5,-1.119 2.5,-2.5c0,-1.3806 -1.1194,-2.5 -2.5,-2.5zm0,3.3333c-0.4602,0 -0.8334,-0.3731 -0.8334,-0.8333c0,-0.4602 0.3732,-0.8333 0.8334,-0.8333c0.4602,0 0.8333,0.3731 0.8333,0.8333c0,0.4602 -0.3731,0.8333 -0.8333,0.8333z"/>
  <path id="svg_3" fill="#37a449" d="m30.0001,32.5c0.4602,0 0.8333,-0.3731 0.8333,-0.8333l0,-3.3334c0,-0.4602 -0.3731,-0.8333 -0.8333,-0.8333c-0.4602,0 -0.8334,0.3731 -0.8334,0.8333l0,3.3334c0,0.4602 0.3732,0.8333 0.8334,0.8333z"/>
  <path id="svg_4" fill="#37a449" d="m34.1667,31.6667l0,-3.3334c0,-0.4602 -0.3732,-0.8333 -0.8334,-0.8333c-0.4602,0 -0.8333,0.3731 -0.8333,0.8333l0,3.3334c0,0.4602 0.3731,0.8333 0.8333,0.8333c0.4602,0 0.8334,-0.3731 0.8334,-0.8333z"/>
  <path id="svg_5" fill="#37a449" d="m37.4999,31.6667l0,-3.3334c0,-0.4602 -0.3731,-0.8333 -0.8333,-0.8333c-0.4602,0 -0.8333,0.3731 -0.8333,0.8333l0,3.3334c0,0.4602 0.3731,0.8333 0.8333,0.8333c0.4602,0 0.8333,-0.3731 0.8333,-0.8333z"/>
  <path id="svg_6" fill="#37a449" d="m40.8332,31.6667l0,-3.3334c0,-0.4602 -0.3732,-0.8333 -0.8334,-0.8333c-0.4602,0 -0.8333,0.3731 -0.8333,0.8333l0,3.3334c0,0.4602 0.3731,0.8333 0.8333,0.8333c0.4602,0 0.8334,-0.3731 0.8334,-0.8333z"/>
  <path id="svg_7" fill="#37a449" d="m26.6665,42.5c-0.4602,0 -0.8333,0.3732 -0.8333,0.8334c0,0.4602 -0.3731,0.8333 -0.8333,0.8333c-0.4602,0 -0.8334,-0.3731 -0.8334,-0.8333c0,-0.4602 0.3732,-0.8334 0.8334,-0.8334c0.4602,0 0.8333,-0.3731 0.8333,-0.8333c0,-0.4602 -0.3731,-0.8333 -0.8333,-0.8333c-1.3806,0 -2.5,1.1194 -2.5,2.5c0,1.381 1.1194,2.5 2.5,2.5c1.3806,0 2.5,-1.119 2.5,-2.5c0,-0.4602 -0.3732,-0.8334 -0.8334,-0.8334z"/>
  <path id="svg_8" fill="#37a449" d="m30.0001,40.8334c-0.4602,0 -0.8334,0.3731 -0.8334,0.8333l0,3.3333c0,0.4602 0.3732,0.8334 0.8334,0.8334c0.4602,0 0.8333,-0.3732 0.8333,-0.8334l0,-3.3333c0,-0.4602 -0.3731,-0.8333 -0.8333,-0.8333z"/>
  <path id="svg_9" fill="#37a449" d="m33.3333,40.8334c-0.4602,0 -0.8333,0.3731 -0.8333,0.8333l0,3.3333c0,0.4602 0.3731,0.8334 0.8333,0.8334c0.4602,0 0.8334,-0.3732 0.8334,-0.8334l0,-3.3333c0,-0.4602 -0.3732,-0.8333 -0.8334,-0.8333z"/>
  <path id="svg_10" fill="#37a449" d="m36.6666,40.8334c-0.4602,0 -0.8333,0.3731 -0.8333,0.8333l0,3.3333c0,0.4602 0.3731,0.8334 0.8333,0.8334c0.4602,0 0.8333,-0.3732 0.8333,-0.8334l0,-3.3333c0,-0.4602 -0.3731,-0.8333 -0.8333,-0.8333z"/>
  <path id="svg_11" fill="#37a449" d="m39.9998,40.8334c-0.4602,0 -0.8333,0.3731 -0.8333,0.8333l0,3.3333c0,0.4602 0.3731,0.8334 0.8333,0.8334c0.4602,0 0.8334,-0.3732 0.8334,-0.8334l0,-3.3333c0,-0.4602 -0.3732,-0.8333 -0.8334,-0.8333z"/>
  <path id="svg_12" fill="#37a449" d="m6.31676,29.8418c0.11027,0.0488 0.22949,0.074 0.34993,0.0749c0.38615,-0.0057 0.71737,-0.2763 0.80078,-0.6531c0.08301,-0.3772 -0.10335,-0.7617 -0.45084,-0.9302c-3.91724,-1.7952 -6.055506,-6.0762 -5.13713,-10.2864c0.91797,-4.2102 4.64478,-7.2124 8.9539,-7.2136c0.8455,-0.0004 1.687,0.1172 2.5,0.3499c0.415,0.1201 0.8524,-0.0972 1.0083,-0.4996c2.0971,-5.43948 7.3287,-9.02428 13.1583,-9.01695c6.6398,0.03255 12.3771,4.64681 13.8334,11.12505c0.0745,0.3341 0.3455,0.5884 0.6832,0.6417c3.6369,0.5811 6.3139,3.7171 6.3168,7.3999c-0.0037,0.2425 -0.0204,0.4846 -0.0501,0.7251c-0.0305,0.2238 0.0313,0.4509 0.1709,0.6283c0.14,0.1774 0.3459,0.2905 0.5709,0.3133c0.2226,0.0232 0.4451,-0.044 0.6173,-0.1868c0.1725,-0.1424 0.2803,-0.3483 0.2994,-0.5713c0.0367,-0.3015 0.0562,-0.6046 0.0582,-0.9086c0.0171,-4.2969 -2.9691,-8.0224 -7.1667,-8.9416c-1.8299,-6.97798 -8.1193,-11.855912 -15.3333,-11.89172c-6.2597,-0.019938 -11.9364,3.67065 -14.4584,9.40023c-0.7255,-0.15585 -1.4661,-0.23438 -2.2082,-0.23356c-5.08793,0.00529 -9.48653,3.55065 -10.572553,8.52135c-1.085612,4.9707 1.433513,10.0272 6.055913,12.1537z"/>
  <path id="svg_13" fill="#37a449" d="m13.3333,30.5087c0.0688,0.0118 0.1396,0.0118 0.2084,0c0.9501,-0.2417 1.8615,-0.6149 2.7083,-1.1084c0.1916,-0.1115 0.3308,-0.2946 0.387,-0.5087c0.0561,-0.2144 0.0248,-0.4419 -0.0871,-0.6331c-0.2315,-0.3939 -0.7369,-0.5278 -1.1332,-0.2999c-0.7178,0.4159 -1.4889,0.7328 -2.2917,0.9416c-0.4602,0.0573 -0.7865,0.4773 -0.7292,0.9375c0.0574,0.4602 0.4773,0.7865 0.9375,0.7291l0,-0.0581z"/>
  <path id="svg_14" fill="#37a449" d="m10.0001,35.8334c0.4602,0 0.8334,-0.3732 0.8334,-0.8334l0,-13.0831l1.8082,2.7084c0.1534,0.2327 0.413,0.3735 0.6918,0.3747c0.1639,0.0021 0.3243,-0.0476 0.4581,-0.1416c0.3805,-0.2543 0.4846,-0.7674 0.2336,-1.1499l-3.3333,-5c0,0 0,0 -0.042,-0.0419c-0.1578,-0.1969 -0.3971,-0.3117 -0.6498,-0.3117c-0.25266,0 -0.49192,0.1148 -0.6498,0.3117c0,0 0,0 -0.04191,0.0419l-3.33333,5c-0.20345,0.3792 -0.08463,0.8508 0.27425,1.0885c0.35848,0.2376 0.83903,0.1631 1.10921,-0.1717l1.80827,-2.7084l0,13.0831c0,0.4602 0.37313,0.8334 0.83331,0.8334z"/>
  <path id="svg_15" fill="#37a449" d="m31.2914,15.1417c-0.382,-0.2511 -0.8955,-0.1469 -1.1499,0.2335l-1.8082,2.7084l0,-9.75021c0,-0.4602 -0.3731,-0.83333 -0.8334,-0.83333c-0.4602,0 -0.8333,0.37313 -0.8333,0.83333l0,9.75021l-1.8082,-2.7084c-0.1498,-0.2787 -0.444,-0.4488 -0.7601,-0.439c-0.3162,0.0097 -0.5994,0.1973 -0.7316,0.4846c-0.1319,0.2873 -0.09,0.6246 0.1082,0.8712l3.3333,5c0.155,0.2303 0.4142,0.3682 0.6917,0.3682c0.2776,0 0.5367,-0.1379 0.6918,-0.3682l3.3333,-5c0.2511,-0.3825 0.1469,-0.896 -0.2336,-1.1503z"/>
 </g>
</svg>