<svg width="30" height="30" xmlns="http://www.w3.org/2000/svg">

 <g>
  <title>background</title>
  <rect fill="none" id="canvas_background" height="402" width="582" y="-1" x="-1"/>
 </g>
 <g>
  <title>Layer 1</title>
  <path id="svg_1" fill="#FFBB01" d="m4.98442,26.6568c-0.10893,-0.1091 -0.26011,-0.1717 -0.41421,-0.1717c-0.15411,0 -0.30529,0.0626 -0.41427,0.1717c-0.10899,0.109 -0.17169,0.2602 -0.17169,0.4143c0,0.1541 0.06264,0.3052 0.17169,0.4142c0.10898,0.109 0.26016,0.1717 0.41427,0.1717c0.1541,0 0.30528,-0.0627 0.41421,-0.1717c0.10898,-0.109 0.17174,-0.2601 0.17174,-0.4142c0,-0.1541 -0.0627,-0.3053 -0.17174,-0.4143z"/>
  <path id="svg_2" fill="#FFBB01" d="m27.5116,10.7193c-0.109,-0.1091 -0.2596,-0.1717 -0.4143,-0.1717c-0.1541,0 -0.3053,0.0626 -0.4143,0.1717c-0.1089,0.109 -0.1716,0.2602 -0.1716,0.4143c0,0.1541 0.0626,0.3052 0.1716,0.4142c0.109,0.109 0.2602,0.1717 0.4143,0.1717c0.1547,0 0.3053,-0.0627 0.4143,-0.1717c0.1095,-0.109 0.1722,-0.2601 0.1722,-0.4142c0,-0.1541 -0.0627,-0.3053 -0.1722,-0.4143z"/>
  <path id="svg_3" fill="#37a449" d="m29.8284,0.17162c-0.1099,-0.10986 -0.259,-0.17162 -0.4145,-0.17162l-14.414,0.00076c-0.3236,0 -0.5859,0.26239 -0.5859,0.58595l0,1.67565l-5.55422,1.48826c-0.31261,0.08379 -0.49812,0.40507 -0.41433,0.71762l2.87865,10.74296l-2.49028,2.4902c-0.31694,-0.4627 -0.84911,-0.7671 -1.45105,-0.7671l-5.62497,0c-0.96928,0 -1.7578,0.7886 -1.7578,1.7578l0,9.5508c0,0.9693 0.78852,1.7579 1.7578,1.7579l5.62502,0c0.82344,0 1.51616,-0.5694 1.706,-1.3348l0.6967,0.6075c0.53788,0.469 1.22688,0.7273 1.94058,0.7273l17.6879,0c0.3236,0 0.586,-0.2624 0.586,-0.5859l0,-28.82895c-0.0001,-0.15539 -0.0618,-0.30446 -0.1716,-0.41432l0,-0.00001zm-21.85974,28.07138c0,0.323 -0.26286,0.5859 -0.58595,0.5859l-5.62497,0c-0.32309,0 -0.58595,-0.2628 -0.58595,-0.5859l0,-9.5508c0,-0.3231 0.26286,-0.586 0.58595,-0.586l2.22656,0l0,6.7499c0,0.3236 0.26239,0.586 0.58595,0.586c0.32357,0 0.58595,-0.2624 0.58595,-0.586l0,-6.7499l2.22657,0c0.32309,0 0.58595,0.2629 0.58595,0.586l0,9.5508l-0.00006,0zm1.76038,-23.51208l4.68496,-1.25534l0,2.17124l-0.3927,0.10524c-0.1502,0.04025 -0.2781,0.1384 -0.3558,0.27299c-0.0777,0.1346 -0.0988,0.2945 -0.0586,0.44463c0.2252,0.84031 -0.2753,1.70711 -1.1156,1.93229c-0.1503,0.04031 -0.2784,0.13864 -0.3561,0.27352c-0.0776,0.13483 -0.0985,0.29503 -0.0579,0.44527l2.284,8.45754l-1.176,0l-0.6061,-2.371c-0.0193,-0.0755 -0.053,-0.145 -0.0982,-0.2055l-2.75196,-10.27088zm4.68496,3.60302l0,4.94436l-1.0688,-3.95726c0.4465,-0.23052 0.8118,-0.57541 1.0688,-0.9871zm8.418,20.49496l-11.106,0c-0.4304,0 -0.846,-0.1558 -1.1704,-0.4386l-1.41504,-1.2341l0,-8.1041l2.55814,-2.5582l0.464,1.8153c0.0663,0.2594 0.2999,0.4408 0.5676,0.4408l11.5201,0.0007c0.4524,0 0.8203,0.368 0.8203,0.8203c0,0.4524 -0.3679,0.8204 -0.8203,0.8204l-5.9029,0c-0.3235,0 -0.5859,0.2624 -0.5859,0.5859c0,0.3236 0.2624,0.586 0.5859,0.586l7.7369,0c0.4524,0 0.8204,0.368 0.8204,0.8203c0,0.4524 -0.368,0.8203 -0.8204,0.8203l-7.7369,0c-0.3235,0 -0.5859,0.2624 -0.5859,0.586c0,0.3236 0.2624,0.586 0.5859,0.586l6.4832,0c0.4523,0 0.8203,0.3679 0.8203,0.8203c0,0.4523 -0.368,0.8203 -0.8203,0.8203l-6.4832,0c-0.3235,0 -0.5859,0.2624 -0.5859,0.586c0,0.3235 0.2624,0.5859 0.5859,0.5859l4.4845,0c0.4523,0 0.8203,0.368 0.8203,0.8204c0,0.4521 -0.368,0.8201 -0.8203,0.8201zm5.9961,0l-0.0001,0l-4.1813,0c0.1137,-0.2504 0.1775,-0.528 0.1775,-0.8204c0,-0.2924 -0.0638,-0.5699 -0.1775,-0.8203l0.184,0c1.0985,0 1.9921,-0.8937 1.9921,-1.9922c0,-0.3204 -0.0764,-0.6232 -0.2114,-0.8916c0.8435,-0.2317 1.4652,-1.0049 1.4652,-1.9209c0,-0.4444 -0.1464,-0.8552 -0.3933,-1.1869l0,-7.4263c0,-0.3236 -0.2624,-0.586 -0.5859,-0.586c-0.3236,0 -0.586,0.2624 -0.586,0.586l0,6.6677c-0.1377,-0.0302 -0.2805,-0.0466 -0.4271,-0.0466l-0.0192,0c0.1136,-0.2504 0.1774,-0.528 0.1774,-0.8204c0,-1.0985 -0.8937,-1.9921 -1.9922,-1.9921l-0.9419,0c1.0002,-0.429 1.7026,-1.4231 1.7026,-2.5785c0,-1.5463 -1.2579,-2.8043 -2.8042,-2.8043c-1.5462,0 -2.8042,1.258 -2.8042,2.8043c0,1.1554 0.7025,2.1495 1.7026,2.5785l-3.2029,0l0,-11.14145c1.0467,-0.22811 1.8727,-1.05401 2.1007,-2.10082l4.4076,0c0.2281,1.04681 1.054,1.87271 2.1008,2.10082l0,1.82172c0,0.32357 0.2623,0.58596 0.5859,0.58596c0.3236,0 0.586,-0.26239 0.586,-0.58596l0,-2.34486c0,-0.32356 -0.2624,-0.58595 -0.586,-0.58595c-0.87,0 -1.5776,-0.70777 -1.5776,-1.57768c0,-0.32356 -0.2624,-0.58595 -0.586,-0.58595l-5.4538,0c-0.3235,0 -0.5859,0.26239 -0.5859,0.58595c0,0.86996 -0.7077,1.57768 -1.5776,1.57768c-0.3236,0 -0.586,0.26239 -0.586,0.58595l0,11.66449l-1.1445,0l0,-16.40625l13.2422,-0.00065l0,27.657zm-6.6211,-12.1962c-0.9001,0 -1.6323,-0.7322 -1.6323,-1.6323c0,-0.9 0.7322,-1.6323 1.6323,-1.6323c0.9,0 1.6322,0.7323 1.6322,1.6323c0,0.9 -0.7322,1.6323 -1.6322,1.6323z"/>
 </g>
</svg>