<svg width="30" height="26" xmlns="http://www.w3.org/2000/svg">

 <g>
  <title>background</title>
  <rect fill="none" id="canvas_background" height="402" width="582" y="-1" x="-1"/>
 </g>
 <g>
  <title>Layer 1</title>
  <path id="svg_1" fill="#37a449" d="m19.7397,3.75745c-0.7275,0 -1.4135,0.28617 -1.9215,0.78509c-0.508,-0.49892 -1.1941,-0.78509 -1.9215,-0.78509c-1.5137,0 -2.7452,1.23152 -2.7452,2.74523c0,1.38809 0.7832,2.80219 2.2649,4.08932c1.0856,0.9431 2.1586,1.4895 2.2037,1.5123c0.0623,0.0315 0.1302,0.0472 0.1981,0.0472c0.0679,0 0.1358,-0.0158 0.1981,-0.0472c0.0451,-0.0228 1.1181,-0.5692 2.2037,-1.5123c1.4817,-1.28713 2.2649,-2.70123 2.2649,-4.08932c0,-1.51371 -1.2315,-2.74523 -2.7452,-2.74523zm-1.9215,7.45425c-0.8059,-0.4558 -3.7878,-2.30515 -3.7878,-4.70902c0,-1.02908 0.8372,-1.86633 1.8663,-1.86633c0.6263,0 1.2078,0.31248 1.5554,0.8359c0.0814,0.12264 0.2188,0.19635 0.3661,0.19635c0.1472,0 0.2846,-0.07371 0.3661,-0.19635c0.3476,-0.52342 0.929,-0.8359 1.5554,-0.8359c1.0291,0 1.8663,0.83725 1.8663,1.86633c0,2.40387 -2.982,4.25322 -3.7878,4.70902z"/>
  <path id="svg_2" fill="#37a449" d="m26.7424,3.75745l-2.3485,0c-0.2427,0 -0.4394,0.19675 -0.4394,0.43945c0,0.24269 0.1967,0.43945 0.4394,0.43945l2.3485,0c0.2427,0 0.4395,-0.19676 0.4395,-0.43945c0,-0.2427 -0.1968,-0.43945 -0.4395,-0.43945z"/>
  <path id="svg_3" fill="#37a449" d="m25.803,8.45447l-1.4091,0c-0.2427,0 -0.4394,0.19676 -0.4394,0.43945c0,0.2427 0.1967,0.43945 0.4394,0.43945l1.4091,0c0.2427,0 0.4394,-0.19675 0.4394,-0.43945c0,-0.24269 -0.1967,-0.43945 -0.4394,-0.43945z"/>
  <path id="svg_4" fill="#37a449" d="m26.7424,6.10608l-2.3485,0c-0.2427,0 -0.4394,0.19676 -0.4394,0.43945c0,0.2427 0.1967,0.43946 0.4394,0.43946l2.3485,0c0.2427,0 0.4395,-0.19676 0.4395,-0.43946c0,-0.24269 -0.1968,-0.43945 -0.4395,-0.43945z"/>
  <path id="svg_5" fill="#37a449" d="m8.89403,10.7424c0.2427,0 0.43946,-0.1967 0.43946,-0.4394c0,-0.2427 -0.19676,-0.43947 -0.43946,-0.43947l-0.9392,0c-0.24269,0 -0.43945,0.19677 -0.43945,0.43947c0,0.2427 0.19676,0.4394 0.43945,0.4394l0.9392,0z"/>
  <path id="svg_6" fill="#37a449" d="m4.1969,10.7424l1.87887,0c0.24269,0 0.43945,-0.1967 0.43945,-0.4394c0,-0.2427 -0.19676,-0.43947 -0.43945,-0.43947l-1.87887,0c-0.2427,0 -0.43945,0.19677 -0.43945,0.43947c0,0.2427 0.19675,0.4394 0.43945,0.4394z"/>
  <path id="svg_7" fill="#37a449" d="m4.1969,13.0911l4.69699,0c0.2427,0 0.43945,-0.1968 0.43945,-0.4395c0,-0.2427 -0.19675,-0.4394 -0.43945,-0.4394l-4.69699,0c-0.2427,0 -0.43945,0.1967 -0.43945,0.4394c0,0.2427 0.19675,0.4395 0.43945,0.4395z"/>
  <path id="svg_8" fill="#37a449" d="m9.33334,15c0,-0.2427 -0.19675,-0.4395 -0.43945,-0.4395l-4.69699,0c-0.2427,0 -0.43945,0.1968 -0.43945,0.4395c0,0.2427 0.19675,0.4395 0.43945,0.4395l4.69699,0c0.2427,0 0.43945,-0.1968 0.43945,-0.4395z"/>
  <path id="svg_9" fill="#37a449" d="m7.95471,17.7878l7.51509,0c0.2427,0 0.4394,-0.1967 0.4394,-0.4394c0,-0.2427 -0.1967,-0.4395 -0.4394,-0.4395l-7.51509,0c-0.24269,0 -0.43945,0.1968 -0.43945,0.4395c0,0.2427 0.19676,0.4394 0.43945,0.4394z"/>
  <path id="svg_10" fill="#37a449" d="m4.1969,16.9089c-0.2427,0 -0.43945,0.1968 -0.43945,0.4395c0,0.2427 0.19675,0.4394 0.43945,0.4394l1.87887,0c0.24269,0 0.43945,-0.1967 0.43945,-0.4394c0,-0.2427 -0.19676,-0.4395 -0.43945,-0.4395l-1.87887,0z"/>
  <path id="svg_11" fill="#37a449" d="m25.803,10.8031l-1.4091,0c-0.2427,0 -0.4394,0.1968 -0.4394,0.4395c0,0.2426 0.1967,0.4394 0.4394,0.4394l1.4091,0c0.2427,0 0.4394,-0.1968 0.4394,-0.4394c0,-0.2427 -0.1967,-0.4395 -0.4394,-0.4395z"/>
  <path id="svg_12" fill="#37a449" d="m28.1515,0l-15.9697,0c-1.0193,0 -1.8485,0.829219 -1.8485,1.84852l0,11.74238c0,1.0193 0.8292,1.8485 1.8485,1.8485l10.1513,0l3.2967,3.2967c0.1744,0.1744 0.4058,0.2668 0.642,0.2668c0.1172,0 0.2357,-0.0228 0.3488,-0.0697c0.341,-0.1412 0.5613,-0.4709 0.5613,-0.8399l0,-2.6538l0.9696,0c1.0193,0 1.8485,-0.8293 1.8485,-1.8486l0,-11.74238c0,-1.019301 -0.8292,-1.84852 -1.8485,-1.84852zm0.9696,13.5909c0,0.5347 -0.4349,0.9696 -0.9696,0.9696l-1.4091,0c-0.2427,0 -0.4394,0.1968 -0.4394,0.4395l0,3.0933c0,0.0104 0,0.0202 -0.0187,0.0279c-0.0187,0.0077 -0.0256,0.0008 -0.033,-0.0065l-3.4254,-3.4254c-0.0824,-0.0825 -0.1942,-0.1288 -0.3107,-0.1288l-10.3334,0c-0.5346,0 -0.9696,-0.4349 -0.9696,-0.9696l0,-11.74238c0,-0.53467 0.435,-0.969614 0.9696,-0.969614l15.9696,0c0.5347,0 0.9696,0.434944 0.9696,0.969614l0,11.74238l0.0001,0z"/>
  <path id="svg_13" fill="#37a449" d="m19.2272,16.4393c-0.2426,0 -0.4394,0.1968 -0.4394,0.4395l0,2.8182c0,0.5346 -0.4349,0.9696 -0.9696,0.9696l-10.33332,0c-0.11654,0 -0.22834,0.0463 -0.31072,0.1287l-3.42539,3.4254c-0.00732,0.0074 -0.01436,0.0143 -0.03299,0.0066c-0.01869,-0.0077 -0.01869,-0.0176 -0.01869,-0.0279l0,-3.0933c0,-0.2427 -0.19676,-0.4395 -0.43945,-0.4395l-1.40912,0c-0.53467,0 -0.969614,-0.4349 -0.969614,-0.9696l0,-11.74241c0,-0.53466 0.434944,-0.9696 0.969614,-0.9696l7.04554,0c0.2427,0 0.43946,-0.19676 0.43946,-0.43946c0,-0.24269 -0.19676,-0.43945 -0.43946,-0.43945l-7.04554,0c-1.019301,0 -1.84852,0.82922 -1.84852,1.84851l0,11.74241c0,1.0193 0.829219,1.8485 1.84852,1.8485l0.96961,0l0,2.6538c0,0.369 0.22031,0.6987 0.56127,0.8399c0.11314,0.0469 0.23156,0.0697 0.34886,0.0697c0.23614,0 0.46758,-0.0924 0.64196,-0.2667l3.29671,-3.2967l10.15127,0c1.0193,0 1.8486,-0.8292 1.8486,-1.8485l0,-2.8182c-0.0001,-0.2427 -0.1969,-0.4395 -0.4396,-0.4395z"/>
 </g>
</svg>