<svg width="30" height="32" xmlns="http://www.w3.org/2000/svg">

 <g>
  <title>background</title>
  <rect fill="none" id="canvas_background" height="402" width="582" y="-1" x="-1"/>
 </g>
 <g>
  <title>Layer 1</title>
  <path id="svg_1" fill="#37a449" d="m15.8687,20.2015c0.5536,-0.0431 1.0582,-0.3254 1.3858,-0.7758l4.979,-6.8833c0.1526,-0.2111 0.1297,-0.5025 -0.0553,-0.6876c-0.1851,-0.1845 -0.4765,-0.2074 -0.6876,-0.0553l-6.8844,4.9806c-0.4488,0.3265 -0.7311,0.8312 -0.7742,1.3847c-0.0431,0.5536 0.1574,1.0955 0.5493,1.4874c0.3568,0.3574 0.8381,0.5552 1.3385,0.5552c0.0494,0 0.0989,-0.0022 0.1489,-0.0059zm-0.9764,-1.9537c0.0187,-0.243 0.1431,-0.4648 0.3388,-0.6073l4.1994,-3.038l-3.037,4.1983c-0.1435,0.1973 -0.3653,0.3212 -0.6083,0.3404c-0.242,0.0159 -0.4797,-0.0681 -0.6525,-0.2409c-0.1712,-0.1718 -0.2595,-0.41 -0.2404,-0.6525z"/>
  <path id="svg_2" fill="#37a449" d="m27.7804,10.4036c-0.0053,-0.0111 -0.0053,-0.0228 -0.0112,-0.034c-0.0063,-0.0106 -0.0164,-0.0165 -0.0234,-0.0266c-0.5376,-0.92209 -1.1736,-1.77985 -1.8957,-2.5573l1.1422,-1.14172l0.7519,0.75193l2.2558,-2.25632l-2.2558,-2.25578l-2.2563,2.25578l0.7525,0.75246l-1.1423,1.14172c-0.7774,-0.72215 -1.6346,-1.35868 -2.5573,-1.8963c-0.0101,-0.00692 -0.0159,-0.01702 -0.0265,-0.0234c-0.0112,-0.00638 -0.0229,-0.00585 -0.0341,-0.0117c-1.6448,-0.94762 -3.4927,-1.57884 -5.4629,-1.81016l0,-0.63334l0.7977,0c0.7333,0 1.3294,-0.59612 1.3294,-1.32944c0,-0.733311 -0.5967,-1.32943 -1.33,-1.32943l-4.7859,0c-0.7333,0 -1.3295,0.596119 -1.3295,1.32943c0,0.73332 0.5962,1.32944 1.3295,1.32944l0.7976,0l0,0.61473c-0.5743,0.06115 -1.1475,0.15475 -1.7144,0.2845c-0.2861,0.06541 -0.4653,0.35097 -0.3994,0.63706c0.0654,0.2861 0.351,0.46584 0.6371,0.39937c0.4892,-0.11221 0.9832,-0.19676 1.4783,-0.25366l0.5706,-0.04414c0.1744,-0.01329 0.335,-0.02286 0.4914,-0.03031l0,1.05132c0,0.29407 0.2377,0.53177 0.5318,0.53177c0.294,0 0.5317,-0.2377 0.5317,-0.53177l0,-1.0476c2,0.092 3.8846,0.62909 5.5603,1.5129l-0.5244,0.90774c-0.1467,0.25472 -0.0595,0.57963 0.1947,0.7264c0.0834,0.04839 0.1749,0.07126 0.2653,0.07126c0.184,0 0.3627,-0.09519 0.4611,-0.26589l0.5227,-0.90561c1.6639,1.05557 3.0774,2.46903 4.1329,4.13296l-0.9056,0.5227c-0.2536,0.1468 -0.3408,0.4717 -0.1935,0.7264c0.0989,0.1707 0.277,0.2659 0.461,0.2659c0.0904,0 0.1819,-0.0229 0.2654,-0.0712l0.9077,-0.5244c0.896,1.6996 1.4347,3.615 1.515,5.6469l-1.0502,0c-0.2941,0 -0.5318,0.2377 -0.5318,0.5318c0,0.2941 0.2377,0.5318 0.5318,0.5318l1.0502,0c-0.0803,2.0319 -0.619,3.9473 -1.515,5.6469l-0.9077,-0.5243c-0.2542,-0.1468 -0.5797,-0.0607 -0.7264,0.1946c-0.1468,0.2547 -0.0596,0.5796 0.1946,0.7264l0.9056,0.5227c-1.0556,1.6639 -2.469,3.0774 -4.1329,4.133l-0.5228,-0.9056c-0.1473,-0.2553 -0.4733,-0.342 -0.7264,-0.1947c-0.2547,0.1468 -0.3419,0.4722 -0.1946,0.7264l0.5243,0.9078c-1.6756,0.8838 -3.5602,1.4209 -5.5602,1.5129l0,-1.0466c0,-0.294 -0.2377,-0.5317 -0.5318,-0.5317c-0.2941,0 -0.5318,0.2377 -0.5318,0.5317l0,1.0508c-0.8492,-0.0292 -1.7011,-0.1356 -2.5397,-0.3281c-0.2861,-0.0686 -0.5717,0.1133 -0.6371,0.3994c-0.0659,0.2861 0.1133,0.5716 0.3994,0.637c1.0614,0.2447 2.1457,0.368 3.2215,0.368c0.026,0 0.051,-0.0016 0.0771,-0.0021c0.0037,0 0.0064,0.0021 0.0096,0.0021c0.0042,0 0.0079,-0.0026 0.0122,-0.0026c2.5562,-0.0176 4.9545,-0.7078 7.0295,-1.9001c0.0165,-0.0074 0.034,-0.0111 0.05,-0.0207c0.0106,-0.0064 0.0165,-0.0165 0.0266,-0.0234c2.1478,-1.2518 3.9425,-3.0444 5.197,-5.1906c0.0101,-0.0144 0.0229,-0.0256 0.0319,-0.0415c0.0064,-0.0112 0.0059,-0.0229 0.0112,-0.034c1.2145,-2.1059 1.9128,-4.5446 1.9128,-7.145c0,-2.6003 -0.6983,-5.0391 -1.9123,-7.1449zm-0.0367,-6.01593l0.7519,0.75192l-0.7519,0.75246l-0.7524,-0.75246l0.7524,-0.75192zm-12.854,-1.18586l0,-1.60649l-1.8612,0c-0.1463,0 -0.2659,-0.11965 -0.2659,-0.26589c0,-0.14623 0.1196,-0.26588 0.2659,-0.26588l4.7859,0c0.1463,0 0.2659,0.11965 0.2659,0.26588c0,0.14624 -0.1196,0.26589 -0.2659,0.26589l-1.8612,0l0,1.60649c-0.185,-0.00744 -0.3616,-0.01117 -0.5317,-0.01117c-0.0149,0 -0.032,0.00107 -0.0468,0.00107c-0.0133,0 -0.0266,-0.00107 -0.0399,-0.00107c-0.0872,0 -0.1744,0.00585 -0.2617,0.00745c-0.0616,0.00159 -0.1196,0.00106 -0.1834,0.00372z"/>
  <path id="svg_3" fill="#37a449" d="m10.6356,7.44495l-2.65888,0c-0.29407,0 -0.53177,0.2377 -0.53177,0.53177c0,0.29407 0.2377,0.53177 0.53177,0.53177l2.65888,0c0.2941,0 0.5318,-0.2377 0.5318,-0.53177c0,-0.29407 -0.2377,-0.53177 -0.5318,-0.53177z"/>
  <path id="svg_4" fill="#37a449" d="m10.6355,11.1672l-5.31778,0c-0.29407,0 -0.53177,0.2377 -0.53177,0.5318c0,0.2941 0.2377,0.5318 0.53177,0.5318l5.31778,0c0.294,0 0.5317,-0.2377 0.5317,-0.5318c0,-0.2941 -0.2377,-0.5318 -0.5317,-0.5318z"/>
  <path id="svg_5" fill="#37a449" d="m10.6355,14.8895l-7.97665,0c-0.29407,0 -0.53177,0.2377 -0.53177,0.5318c0,0.2941 0.2377,0.5318 0.53177,0.5318l7.97665,0c0.294,0 0.5317,-0.2377 0.5317,-0.5318c0,-0.2941 -0.2377,-0.5318 -0.5317,-0.5318z"/>
  <path id="svg_6" fill="#37a449" d="m10.6355,18.6122l-10.103726,0c-0.294071,0 -0.531774,0.2377 -0.531774,0.5318c0,0.294 0.237703,0.5317 0.531774,0.5317l10.103726,0c0.294,0 0.5318,-0.2377 0.5318,-0.5317c0,-0.2941 -0.2378,-0.5318 -0.5318,-0.5318z"/>
  <path id="svg_7" fill="#37a449" d="m10.6354,22.3345l-6.91307,0c-0.29408,0 -0.53178,0.2377 -0.53178,0.5317c0,0.2941 0.2377,0.5318 0.53178,0.5318l6.91307,0c0.2941,0 0.5318,-0.2377 0.5318,-0.5318c0,-0.294 -0.2377,-0.5317 -0.5318,-0.5317z"/>
  <path id="svg_8" fill="#37a449" d="m10.6355,26.0569l-3.72244,0c-0.29407,0 -0.53177,0.2377 -0.53177,0.5318c0,0.294 0.2377,0.5317 0.53177,0.5317l3.72244,0c0.294,0 0.5318,-0.2377 0.5318,-0.5317c0,-0.2941 -0.2378,-0.5318 -0.5318,-0.5318z"/>
 </g>
</svg>